<svg id="Layer_1" data-name="Layer 1" xmlns="http://www.w3.org/2000/svg" viewBox="0 0 1080 1080"><defs><style>.cls-1{fill:#2e3192;}</style></defs><path class="cls-1" d="M732.19,347.81A271.82,271.82,0,1,0,811.79,540,270,270,0,0,0,732.19,347.81ZM715.92,715.92A248.78,248.78,0,1,1,788.79,540,247.13,247.13,0,0,1,715.92,715.92Z"/><path class="cls-1" d="M616.93,467.83A64.65,64.65,0,1,0,554,417.78L429.34,495.94a64.58,64.58,0,1,0-1.92,86.92L555.32,663a64.84,64.84,0,1,0,10.78-20.39l-126-79a64.54,64.54,0,0,0,1.05-48l122.1-76.54A64.56,64.56,0,0,0,616.93,467.83Zm0-106.16a41.58,41.58,0,1,1-41.58,41.58A41.62,41.62,0,0,1,616.93,361.67ZM380.7,579.93a41.58,41.58,0,1,1,41.58-41.58A41.62,41.62,0,0,1,380.7,579.93Zm236.23,60.9a41.59,41.59,0,1,1-41.58,41.59A41.63,41.63,0,0,1,616.93,640.83Z"/></svg>