<svg id="Layer_1" data-name="Layer 1" xmlns="http://www.w3.org/2000/svg" viewBox="0 0 1080 1080"><defs><style>.cls-1{fill:#2e3192;}</style></defs><path class="cls-1" d="M732.19,347.81A271.82,271.82,0,1,0,811.79,540,270,270,0,0,0,732.19,347.81ZM788.54,529H708v11a37.85,37.85,0,0,1-75.69,0V529H551V468.69A59.86,59.86,0,0,0,551,351V291.46A248.77,248.77,0,0,1,788.54,529ZM364.08,364.08A247,247,0,0,1,529,291.46V372h11a37.85,37.85,0,0,1,0,75.69H529V529H468.69A59.86,59.86,0,0,0,351,529H291.46A246.94,246.94,0,0,1,364.08,364.08ZM291.46,551H372V540a37.85,37.85,0,0,1,75.69,0v11H529v60.31A59.86,59.86,0,0,0,529,729v59.56A248.77,248.77,0,0,1,291.46,551ZM715.92,715.92A246.94,246.94,0,0,1,551,788.54V708H540a37.85,37.85,0,0,1,0-75.69h11V551h60.31A59.86,59.86,0,0,0,729,551h59.56A246.94,246.94,0,0,1,715.92,715.92Z"/></svg>