<svg id="Layer_1" data-name="Layer 1" xmlns="http://www.w3.org/2000/svg" viewBox="0 0 1080 1080"><defs><style>.cls-1{fill:#2e3192;}</style></defs><path class="cls-1" d="M732.19,341.06a271.8,271.8,0,1,0,79.6,192.18A270,270,0,0,0,732.19,341.06ZM715.92,709.17a248.8,248.8,0,1,1,72.87-175.93A247.15,247.15,0,0,1,715.92,709.17Z"/><path class="cls-1" d="M689.08,521.74H551.5V384.16a11.5,11.5,0,0,0-23,0V521.74H390.92a11.5,11.5,0,0,0,0,23H528.5V682.33a11.5,11.5,0,0,0,23,0V544.74H689.08a11.5,11.5,0,1,0,0-23Z"/></svg>