<?xml version="1.0" encoding="utf-8"?>
<!-- Generator: Adobe Illustrator 22.0.1, SVG Export Plug-In . SVG Version: 6.00 Build 0)  -->
<svg version="1.1" id="圖層_1" xmlns="http://www.w3.org/2000/svg" xmlns:xlink="http://www.w3.org/1999/xlink" x="0px" y="0px"
	 viewBox="0 0 100 100" style="enable-background:new 0 0 100 100;" xml:space="preserve">
<g>
	<path id="XMLID_362_" d="M35.8,7.5H7.5v28.3h28.3V7.5z M32.4,32.4H10.9V10.9h21.5V32.4z"/>
	<path id="XMLID_365_" d="M14.9,14.9h13.6v13.6H14.9V14.9z"/>
	<path id="XMLID_388_" d="M92.5,7.5H64.1v28.3h28.3C92.5,35.8,92.5,7.5,92.5,7.5z M89.1,32.4H67.5V10.9h21.5V32.4z"/>
	<path id="XMLID_389_" d="M71.5,14.9h13.6v13.6H71.5V14.9z"/>
	<path id="XMLID_392_" d="M7.5,92.4h28.3V64.1H7.5V92.4z M10.9,67.5h21.5V89H10.9C10.9,89,10.9,67.5,10.9,67.5z"/>
	<path id="XMLID_393_" d="M14.9,71.5h13.6v13.6H14.9V71.5z"/>
	<path id="XMLID_394_" d="M40.6,7.5h4.7v4.7h-4.7V7.5z"/>
	<path id="XMLID_395_" d="M54.7,12.2h4.7V7.5H50V17h4.7V12.2z"/>
	<path id="XMLID_396_" d="M45.3,17H50v4.7h-4.7V17z"/>
	<path id="XMLID_397_" d="M40.6,26.4v4.7h4.7v-9.4h-4.7V26.4z"/>
	<path id="XMLID_398_" d="M50,26.4h4.7v4.7H50V26.4z"/>
	<path id="XMLID_399_" d="M54.7,21.7h4.7v4.7h-4.7V21.7z"/>
	<path id="XMLID_400_" d="M45.3,31.1H50v4.7h-4.7V31.1z"/>
	<path id="XMLID_401_" d="M54.7,31.1h4.7v4.7h-4.7V31.1z"/>
	<path id="XMLID_402_" d="M7.5,54.7h4.7v4.7H7.5L7.5,54.7z"/>
	<path id="XMLID_403_" d="M12.2,45.3v-4.7H7.5V50h9.4v-4.7H12.2z"/>
	<path id="XMLID_411_" d="M16.9,50h4.7v4.7h-4.7V50z"/>
	<path id="XMLID_412_" d="M21.7,54.7v4.7h9.4v-4.7h-4.7H21.7z"/>
	<path id="XMLID_413_" d="M26.4,45.3h4.7V50h-4.7V45.3z"/>
	<path id="XMLID_414_" d="M21.7,40.5h4.7v4.7h-4.7V40.5z"/>
	<path id="XMLID_415_" d="M31.1,50h4.7v4.7h-4.7V50z"/>
	<path id="XMLID_416_" d="M31.1,40.5h4.7v4.7h-4.7V40.5z"/>
	<path id="XMLID_417_" d="M73.6,45.3h4.7V50h-4.7V45.3z"/>
	<path id="XMLID_418_" d="M87.8,45.3v-4.7h-9.4v4.7H83H87.8z"/>
	<path id="XMLID_419_" d="M83,50h4.7v4.7H83V50z"/>
	<path id="XMLID_420_" d="M78.3,54.7H83v4.7h-4.7V54.7z"/>
	<path id="XMLID_421_" d="M87.8,45.3h4.7V50h-4.7V45.3z"/>
	<path id="XMLID_422_" d="M73.6,78.3h4.7V83h-4.7V78.3z"/>
	<path id="XMLID_423_" d="M83,83h4.7v4.7H83V83z"/>
	<path id="XMLID_424_" d="M78.3,87.8H83v4.7h-4.7V87.8z"/>
	<path id="XMLID_425_" d="M87.8,78.3h4.7V83h-4.7V78.3z"/>
	<path id="XMLID_426_" d="M87.8,87.8h4.7v4.7h-4.7V87.8z"/>
	<path id="XMLID_427_" d="M40.6,59.4h4.7v4.7h-4.7V59.4z"/>
	<path id="XMLID_428_" d="M40.5,68.9v4.7H50v-4.7h-4.7H40.5z"/>
	<path id="XMLID_429_" d="M50,64.2h4.7v4.7H50V64.2z"/>
	<path id="XMLID_430_" d="M59.4,68.9h4.7v4.7h-4.7V68.9z"/>
	<path id="XMLID_431_" d="M50,54.7h4.7v-9.4H50v0h-4.7v-4.7h-4.7v4.7h4.7V50h-4.7v4.7L50,54.7L50,54.7z"/>
	<path id="XMLID_433_" d="M40.6,78.3h4.7V83h-4.7V78.3z"/>
	<path id="XMLID_434_" d="M40.6,87.8v4.7H50v-4.7h-4.7H40.6z"/>
	<path id="XMLID_435_" d="M92.5,59.5v-4.7h-4.7v4.7h-4.7v4.7h9.4L92.5,59.5L92.5,59.5z"/>
	<path id="XMLID_483_" d="M87.8,68.9h4.7v4.7h-4.7V68.9z"/>
	<g>
		<polygon points="68.9,59.4 68.9,59.4 68.9,59.4 68.9,59.4 68.9,59.4 68.9,54.7 73.6,54.7 73.6,50 59.5,50 59.5,54.7 64.1,54.7 
			64.1,68.9 68.9,68.9 68.9,64.2 68.9,64.2 73.6,64.2 73.6,59.4 		"/>
		<rect x="54.7" y="59.4" width="4.7" height="4.7"/>
	</g>
	<path id="XMLID_172_" d="M54.7,40.6h14.2v4.7H54.7V40.6z"/>
	<path id="XMLID_179_" d="M83,73.6L83,73.6L83,73.6l0-9.4h-3.7v0h-4.7v4.7l-1,0h-4.7v4.7h-4.7v0h0v4.7H50v9.5h4.7v-4.7h9.4v4.7h-4.7
		v4.7h4.7v0h4.7v-4.7h4.7V83h-4.7v0h0v-4.7h0v0h0v-4.7h9.4v4.7h9.4v-4.7L83,73.6z"/>
</g>
</svg>
